<svg width="100" height="100" viewBox="0 0 100 100" fill="none" xmlns="http://www.w3.org/2000/svg">
<path d="M83.51 61.15C83.0699 61.348 82.662 61.6109 82.3 61.93C81.9564 62.1665 81.641 62.4417 81.36 62.75C81.36 63.6 81.61 64.61 81.71 65.75C81.9889 68.0729 81.6652 70.4285 80.77 72.59C80.37 73.59 79.9 74.53 79.63 75.33C79.8615 75.7657 80.1398 76.1748 80.46 76.55C80.6953 76.9068 80.9855 77.224 81.32 77.49C82.6918 77.1225 83.9108 76.3274 84.8 75.22C86.0631 73.7247 86.8725 71.8995 87.1329 69.9595C87.3933 68.0196 87.0939 66.0455 86.27 64.27C85.7085 62.9609 84.7409 61.8671 83.51 61.15Z" fill="white"/>
<path d="M89.6801 77.64C88.7335 79.3278 87.6919 80.9604 86.5601 82.53C86.719 83.0061 86.9781 83.4426 87.3201 83.81C87.7501 84.36 88.1401 84.74 88.2401 84.7C90.4024 83.7133 92.2805 82.1964 93.7001 80.29C95.7004 77.6818 96.9843 74.5961 97.4245 71.3388C97.8648 68.0815 97.4462 64.7656 96.2101 61.72C95.3474 59.5038 93.9368 57.5427 92.1101 56.02C92.0201 55.95 91.4501 56.27 90.8601 56.74C90.2701 57.21 89.9401 57.54 89.9701 57.62C90.6374 59.4401 91.2016 61.2964 91.6601 63.18C92.7668 68.0831 92.0561 73.2213 89.6601 77.64H89.6801Z" fill="white"/>
<path d="M80.7499 44.54C80.6268 44.3279 80.4899 44.1241 80.3399 43.93C80.0466 43.559 79.711 43.2234 79.3399 42.93C78.8099 42.5203 78.2443 42.1589 77.6499 41.85L76.5199 41.16C75.8061 40.6772 75.1368 40.1317 74.5199 39.53C73.9131 38.9204 73.3703 38.2502 72.8999 37.53C72.4404 36.8113 72.0487 36.0513 71.7299 35.26C71.418 34.4583 71.1869 33.6275 71.0399 32.78C70.9671 32.3597 70.9171 31.9357 70.8899 31.51L70.7499 29.88C70.6099 27.6003 70.2175 25.3432 69.5799 23.15C68.9632 20.8905 68.0591 18.7195 66.8899 16.69C66.2924 15.6456 65.6242 14.6432 64.8899 13.69C64.1372 12.7559 63.3185 11.8769 62.4399 11.06C58.9338 7.91752 54.6654 5.74881 50.06 4.76999C49.5112 4.61838 48.9534 4.50148 48.3899 4.41999L46.7099 4.12999C45.59 3.94999 44.4799 3.88999 43.36 3.76999C41.1419 3.63762 38.918 3.63762 36.7 3.76999C27.7805 4.21119 19.2938 7.74734 12.6999 13.77C9.58154 16.7151 7.07381 20.2456 5.31995 24.16C3.30604 28.689 2.31566 33.6064 2.41937 38.562C2.52308 43.5175 3.71832 48.3892 5.91995 52.83C6.31995 53.65 6.75662 54.4467 7.22995 55.22L8.46995 57.32C11.3448 62.3959 12.9535 68.0901 13.1599 73.92C13.322 78.6579 12.5226 83.3795 10.8099 87.8C10.7235 87.9771 10.673 88.1696 10.6614 88.3663C10.6498 88.563 10.6773 88.7601 10.7424 88.9461C10.8076 89.1321 10.9089 89.3034 11.0407 89.45C11.1724 89.5965 11.3319 89.7155 11.5099 89.8C11.8626 89.8923 12.2369 89.8502 12.5602 89.6821C12.8836 89.5139 13.133 89.2316 13.2599 88.89C15.4657 84.1942 16.6323 79.0778 16.6799 73.89C16.743 67.4226 15.1966 61.0411 12.1799 55.32L10.9399 53.06C10.5533 52.3933 10.1933 51.6867 9.85995 50.94C8.06846 47.0711 7.14051 42.8586 7.14051 38.595C7.14051 34.3314 8.06846 30.1189 9.85995 26.25C11.4135 22.9657 13.5944 20.017 16.2799 17.57C22.0145 12.4655 29.3305 9.48892 37 9.13999C38.9994 9.04298 41.0028 9.06301 43 9.19999C44 9.31999 45 9.35999 45.9399 9.52999L47.3899 9.77999C47.8733 9.84981 48.3511 9.9534 48.82 10.09C52.5235 10.879 55.9548 12.6274 58.77 15.16C59.4458 15.7818 60.0773 16.4501 60.66 17.16C61.2239 17.8985 61.7383 18.6735 62.2 19.48C63.1475 21.1193 63.8802 22.8737 64.3799 24.7C64.9262 26.5564 65.2616 28.4685 65.3799 30.4L65.4499 31.12C65.4499 31.37 65.4999 31.56 65.5199 31.91C65.5632 32.5303 65.64 33.1479 65.75 33.76C65.9636 34.9706 66.2986 36.1565 66.7499 37.3C67.2128 38.4427 67.7855 39.5379 68.4599 40.57C69.1488 41.5846 69.9396 42.5262 70.8199 43.38C71.6858 44.2173 72.6264 44.9738 73.6299 45.64L75.1399 46.54C75.457 46.6996 75.7613 46.8835 76.0499 47.09L76.1699 47.2C76.1716 47.23 76.1716 47.26 76.1699 47.29C76.2268 47.4088 76.2575 47.5383 76.2599 47.67C76.2609 47.8009 76.2336 47.9306 76.1799 48.05C76.0999 48.19 76.1799 48.19 75.8299 48.5C74.685 49.5615 73.2873 50.312 71.7699 50.68C71.2011 50.8387 70.7037 51.1869 70.3599 51.6671C70.0162 52.1472 69.8468 52.7304 69.8799 53.32L70.1899 59.04L69.5299 59.18C68.6499 59.35 67.7699 59.49 66.8899 59.58C66.0099 59.67 65.13 59.72 64.26 59.73H63.2599C63.007 59.7112 62.7529 59.7112 62.5 59.73C61.4142 59.8679 60.4192 60.4065 59.7099 61.24C59.0257 62.0403 58.6466 63.057 58.6399 64.11C58.6367 64.6059 58.7144 65.0991 58.8699 65.57C58.9699 65.86 59.07 66.15 59.2 66.43C59.6793 67.5429 60.357 68.5594 61.2 69.43C62.7946 71.0614 64.7974 72.2355 66.9999 72.83C67.4599 72.95 67.9199 73.07 68.3799 73.16L68.2299 73.82C68.17 74.1 68.1199 74.35 68.0799 74.6C67.9999 75.1 67.9399 75.6 67.91 76.1C67.864 76.6557 67.864 77.2143 67.91 77.77C67.91 77.94 67.9099 78.1 67.9899 78.3V78.41L68.0799 78.71V78.81C68.1294 78.9369 68.1695 79.0672 68.1999 79.2C68.4399 80.2506 68.2607 81.3533 67.7005 82.2739C67.1403 83.1944 66.2433 83.8603 65.1999 84.13C65.0458 84.1767 64.8888 84.2135 64.73 84.24L64.18 84.34L63.09 84.52C62.3633 84.6333 61.6433 84.7233 60.93 84.79C59.5 84.93 58.0799 85 56.6899 85C54.0572 85.0329 51.4287 84.7814 48.8499 84.25C46.5716 83.7883 44.363 83.032 42.2799 82C40.468 81.1168 38.8208 79.9296 37.41 78.49C37.1612 78.1989 36.8153 78.008 36.4363 77.9528C36.0574 77.8976 35.6714 77.9819 35.3499 78.19C35.2118 78.3267 35.1021 78.4894 35.0272 78.6688C34.9524 78.8482 34.9138 79.0406 34.9138 79.235C34.9138 79.4294 34.9524 79.6218 35.0272 79.8012C35.1021 79.9805 35.2118 80.1433 35.3499 80.28C36.8735 82.0888 38.7093 83.6096 40.77 84.77C42.5785 85.8196 44.4966 86.668 46.49 87.3C45.33 89.86 45.54 94.57 47.13 96.3C47.6175 96.3601 48.1091 96.3801 48.5999 96.36C49.0275 96.3766 49.4558 96.3565 49.88 96.3C51.26 94.8 51.6 91.02 50.88 88.38C52.7815 88.7035 54.7024 88.9006 56.63 88.97C58.1733 89.0277 59.7186 89.0077 61.2599 88.91C62.0466 88.8633 62.8433 88.79 63.65 88.69L64.86 88.53L65.47 88.44C65.66 88.44 65.88 88.37 66.15 88.31C68.2752 87.8516 70.1375 86.5814 71.3399 84.77C71.9669 83.8376 72.402 82.7898 72.62 81.6876C72.8381 80.5854 72.8346 79.4508 72.6099 78.35C72.5571 78.0693 72.487 77.7921 72.3999 77.52V77.47V77.37C72.3782 77.0737 72.3782 76.7763 72.3999 76.48C72.3999 76.14 72.4799 75.77 72.5499 75.42C72.5499 75.25 72.6199 75.07 72.66 74.93L72.8199 74.32L72.9899 73.69C73.1136 73.2104 73.1509 72.7126 73.0999 72.22C72.9942 71.1683 72.4765 70.2012 71.66 69.53C71.2422 69.1866 70.7591 68.9314 70.2399 68.78L69.4299 68.59C69.0499 68.52 68.6899 68.4 68.3199 68.3C66.9673 67.9284 65.7361 67.2076 64.75 66.21C64.3573 65.7829 64.0396 65.2927 63.81 64.76H64.25C65.25 64.76 66.3299 64.76 67.3699 64.63C68.41 64.5 69.45 64.4 70.4799 64.21C71.5614 64.0149 72.63 63.7544 73.6799 63.43C74.1948 63.2692 74.6431 62.945 74.9571 62.5065C75.2711 62.068 75.4336 61.5391 75.4199 61V60.92L75.1799 55.12C76.8315 54.4926 78.3385 53.5366 79.6099 52.31C79.8784 52.047 80.129 51.7664 80.3599 51.47C80.6148 51.1007 80.8294 50.7051 80.9999 50.29C81.3692 49.48 81.5603 48.6002 81.5603 47.71C81.5603 46.8198 81.3692 45.94 80.9999 45.13C80.927 44.9291 80.8435 44.7322 80.7499 44.54ZM68.4999 72.54C68.4999 72.54 68.4999 72.52 68.4999 72.54V72.54Z" fill="white"/>
</svg>
